{
  "accessors": [
    {
      "bufferView": 2,
      "componentType": 5126,
      "count": 7165,
      "max": [
        0.13166199624538422,
        0.13763898611068726,
        0.10078798979520798
      ],
      "min": [
        -0.13133299350738525,
        -0.02812799997627735,
        -0.13776399195194244
      ],
      "type": "VEC3"
    },
    {
      "bufferView": 2,
      "byteOffset": 85980,
      "componentType": 5126,
      "count": 7165,
      "max": [
        0.9999154210090637,
        0.9999253749847412,
        0.9998449087142944
      ],
      "min": [
        -0.9999154806137085,
        -0.9999003410339355,
        -0.9999474287033081
      ],
      "type": "VEC3"
    },
    {
      "bufferView": 3,
      "componentType": 5126,
      "count": 7165,
      "max": [
        0.9999966621398926,
        0.9997544884681702,
        0.9999946355819702,
        1.0
      ],
      "min": [
        -0.9994051456451416,
        -0.9998887777328491,
        -0.9999945163726807,
        1.0
      ],
      "type": "VEC4"
    },
    {
      "bufferView": 1,
      "componentType": 5126,
      "count": 7165,
      "max": [
        0.9942280054092407,
        0.9887650012969971
      ],
      "min": [
        0.017704999074339867,
        0.01640099287033081
      ],
      "type": "VEC2"
    },
    {
      "bufferView": 1,
      "byteOffset": 57320,
      "componentType": 5126,
      "count": 7165,
      "max": [
        0.9942280054092407,
        0.9887650012969971
      ],
      "min": [
        0.017704999074339867,
        0.01640099287033081
      ],
      "type": "VEC2"
    },
    {
      "bufferView": 1,
      "byteOffset": 114640,
      "componentType": 5126,
      "count": 7165,
      "max": [
        0.9942280054092407,
        0.9887650012969971
      ],
      "min": [
        0.017704999074339867,
        0.01640099287033081
      ],
      "type": "VEC2"
    },
    {
      "bufferView": 1,
      "byteOffset": 171960,
      "componentType": 5126,
      "count": 7165,
      "max": [
        0.9942280054092407,
        0.9887650012969971
      ],
      "min": [
        0.017704999074339867,
        0.01640099287033081
      ],
      "type": "VEC2"
    },
    {
      "bufferView": 1,
      "byteOffset": 229280,
      "componentType": 5126,
      "count": 7165,
      "max": [
        0.9942280054092407,
        0.9887650012969971
      ],
      "min": [
        0.017704999074339867,
        0.01640099287033081
      ],
      "type": "VEC2"
    },
    {
      "bufferView": 0,
      "componentType": 5125,
      "count": 24408,
      "type": "SCALAR"
    },
    {
      "bufferView": 2,
      "byteOffset": 171960,
      "componentType": 5126,
      "count": 12552,
      "max": [
        0.11722148954868317,
        0.19638797640800476,
        0.13242298364639282
      ],
      "min": [
        -0.11722148954868317,
        -0.19638797640800476,
        -0.13242298364639282
      ],
      "type": "VEC3"
    },
    {
      "bufferView": 2,
      "byteOffset": 322584,
      "componentType": 5126,
      "count": 12552,
      "max": [
        0.9999924898147583,
        0.9998154044151306,
        0.999951958656311
      ],
      "min": [
        -0.9999923706054688,
        -0.9998549222946167,
        -0.999984860420227
      ],
      "type": "VEC3"
    },
    {
      "bufferView": 3,
      "byteOffset": 114640,
      "componentType": 5126,
      "count": 12552,
      "max": [
        0.9999614953994751,
        0.9999412298202515,
        1.0,
        1.0
      ],
      "min": [
        -0.9999915361404419,
        -0.9999892711639404,
        -0.9999599456787109,
        -1.0
      ],
      "type": "VEC4"
    },
    {
      "bufferView": 1,
      "byteOffset": 286600,
      "componentType": 5126,
      "count": 12552,
      "max": [
        0.9929220080375671,
        0.9929952621459961
      ],
      "min": [
        0.007117580156773329,
        0.0034009814262390137
      ],
      "type": "VEC2"
    },
    {
      "bufferView": 1,
      "byteOffset": 387016,
      "componentType": 5126,
      "count": 12552,
      "max": [
        0.9929220080375671,
        0.9929952621459961
      ],
      "min": [
        0.007117580156773329,
        0.0034009814262390137
      ],
      "type": "VEC2"
    },
    {
      "bufferView": 1,
      "byteOffset": 487432,
      "componentType": 5126,
      "count": 12552,
      "max": [
        0.9929220080375671,
        0.9929952621459961
      ],
      "min": [
        0.007117580156773329,
        0.0034009814262390137
      ],
      "type": "VEC2"
    },
    {
      "bufferView": 1,
      "byteOffset": 587848,
      "componentType": 5126,
      "count": 12552,
      "max": [
        0.9929220080375671,
        0.9929952621459961
      ],
      "min": [
        0.007117580156773329,
        0.0034009814262390137
      ],
      "type": "VEC2"
    },
    {
      "bufferView": 1,
      "byteOffset": 688264,
      "componentType": 5126,
      "count": 12552,
      "max": [
        0.9929220080375671,
        0.9929952621459961
      ],
      "min": [
        0.007117580156773329,
        0.0034009814262390137
      ],
      "type": "VEC2"
    },
    {
      "bufferView": 0,
      "byteOffset": 97632,
      "componentType": 5125,
      "count": 65688,
      "type": "SCALAR"
    },
    {
      "bufferView": 2,
      "byteOffset": 473208,
      "componentType": 5126,
      "count": 436,
      "max": [
        0.09527508914470673,
        0.11465399712324142,
        -0.084294892847538
      ],
      "min": [
        -0.0952748954296112,
        0.05514899641275406,
        -0.1429549902677536
      ],
      "type": "VEC3"
    },
    {
      "bufferView": 2,
      "byteOffset": 478440,
      "componentType": 5126,
      "count": 436,
      "max": [
        0.9894490242004395,
        0.9989492297172546,
        0.9414386749267578
      ],
      "min": [
        -0.989447832107544,
        -0.9974570274353027,
        -0.9983445405960083
      ],
      "type": "VEC3"
    },
    {
      "bufferView": 3,
      "byteOffset": 315472,
      "componentType": 5126,
      "count": 436,
      "max": [
        0.9381066560745239,
        0.9998032450675964,
        0.9864500164985657,
        1.0
      ],
      "min": [
        -0.9991254210472107,
        -0.991050124168396,
        -0.9990977048873901,
        1.0
      ],
      "type": "VEC4"
    },
    {
      "bufferView": 1,
      "byteOffset": 788680,
      "componentType": 5126,
      "count": 436,
      "max": [
        0.9790530204772949,
        0.6322129964828491
      ],
      "min": [
        0.03044150024652481,
        0.03334200382232666
      ],
      "type": "VEC2"
    },
    {
      "bufferView": 1,
      "byteOffset": 792168,
      "componentType": 5126,
      "count": 436,
      "max": [
        0.9790530204772949,
        0.6322129964828491
      ],
      "min": [
        0.03044150024652481,
        0.03334200382232666
      ],
      "type": "VEC2"
    },
    {
      "bufferView": 1,
      "byteOffset": 795656,
      "componentType": 5126,
      "count": 436,
      "max": [
        0.9790530204772949,
        0.6322129964828491
      ],
      "min": [
        0.03044150024652481,
        0.03334200382232666
      ],
      "type": "VEC2"
    },
    {
      "bufferView": 1,
      "byteOffset": 799144,
      "componentType": 5126,
      "count": 436,
      "max": [
        0.9790530204772949,
        0.6322129964828491
      ],
      "min": [
        0.03044150024652481,
        0.03334200382232666
      ],
      "type": "VEC2"
    },
    {
      "bufferView": 1,
      "byteOffset": 802632,
      "componentType": 5126,
      "count": 436,
      "max": [
        0.9790530204772949,
        0.6322129964828491
      ],
      "min": [
        0.03044150024652481,
        0.03334200382232666
      ],
      "type": "VEC2"
    },
    {
      "bufferView": 0,
      "byteOffset": 360384,
      "componentType": 5125,
      "count": 2208,
      "type": "SCALAR"
    },
    {
      "bufferView": 2,
      "byteOffset": 483672,
      "componentType": 5126,
      "count": 16077,
      "max": [
        0.15720950067043304,
        0.27168649435043335,
        0.16218198835849762
      ],
      "min": [
        -0.15720950067043304,
        -0.27168649435043335,
        -0.16218198835849762
      ],
      "type": "VEC3"
    },
    {
      "bufferView": 2,
      "byteOffset": 676596,
      "componentType": 5126,
      "count": 16077,
      "max": [
        0.9995061159133911,
        0.9999645948410034,
        0.999999463558197
      ],
      "min": [
        -0.9996865391731262,
        -0.999977707862854,
        -0.9999994039535522
      ],
      "type": "VEC3"
    },
    {
      "bufferView": 3,
      "byteOffset": 322448,
      "componentType": 5126,
      "count": 16077,
      "max": [
        1.0,
        0.9999830722808838,
        0.9999971389770508,
        1.0
      ],
      "min": [
        -0.999944806098938,
        -0.9999996423721313,
        -0.999808132648468,
        -1.0
      ],
      "type": "VEC4"
    },
    {
      "bufferView": 1,
      "byteOffset": 806120,
      "componentType": 5126,
      "count": 16077,
      "max": [
        0.9912530183792114,
        0.9927529692649841
      ],
      "min": [
        0.00990993995219469,
        0.012597978115081787
      ],
      "type": "VEC2"
    },
    {
      "bufferView": 1,
      "byteOffset": 934736,
      "componentType": 5126,
      "count": 16077,
      "max": [
        0.9912530183792114,
        0.9927529692649841
      ],
      "min": [
        0.00990993995219469,
        0.012597978115081787
      ],
      "type": "VEC2"
    },
    {
      "bufferView": 1,
      "byteOffset": 1063352,
      "componentType": 5126,
      "count": 16077,
      "max": [
        0.9912530183792114,
        0.9927529692649841
      ],
      "min": [
        0.00990993995219469,
        0.012597978115081787
      ],
      "type": "VEC2"
    },
    {
      "bufferView": 1,
      "byteOffset": 1191968,
      "componentType": 5126,
      "count": 16077,
      "max": [
        0.9912530183792114,
        0.9927529692649841
      ],
      "min": [
        0.00990993995219469,
        0.012597978115081787
      ],
      "type": "VEC2"
    },
    {
      "bufferView": 1,
      "byteOffset": 1320584,
      "componentType": 5126,
      "count": 16077,
      "max": [
        0.9912530183792114,
        0.9927529692649841
      ],
      "min": [
        0.00990993995219469,
        0.012597978115081787
      ],
      "type": "VEC2"
    },
    {
      "bufferView": 0,
      "byteOffset": 369216,
      "componentType": 5125,
      "count": 60288,
      "type": "SCALAR"
    },
    {
      "bufferView": 2,
      "byteOffset": 869520,
      "componentType": 5126,
      "count": 24136,
      "max": [
        0.15040749311447144,
        0.3283669650554657,
        0.17367300391197205
      ],
      "min": [
        -0.15040749311447144,
        -0.3283669650554657,
        -0.17367300391197205
      ],
      "type": "VEC3"
    },
    {
      "bufferView": 2,
      "byteOffset": 1159152,
      "componentType": 5126,
      "count": 24136,
      "max": [
        1.0,
        1.0,
        1.0
      ],
      "min": [
        -1.0,
        -1.0,
        -1.0
      ],
      "type": "VEC3"
    },
    {
      "bufferView": 3,
      "byteOffset": 579680,
      "componentType": 5126,
      "count": 24136,
      "max": [
        1.0,
        0.9999997615814209,
        0.9999696016311646,
        1.0
      ],
      "min": [
        -1.0,
        -0.9999498128890991,
        -0.9998192191123962,
        -1.0
      ],
      "type": "VEC4"
    },
    {
      "bufferView": 1,
      "byteOffset": 1449200,
      "componentType": 5126,
      "count": 24136,
      "max": [
        0.9925310015678406,
        0.9847761988639832
      ],
      "min": [
        0.008617740124464035,
        0.010762989521026611
      ],
      "type": "VEC2"
    },
    {
      "bufferView": 1,
      "byteOffset": 1642288,
      "componentType": 5126,
      "count": 24136,
      "max": [
        0.9925310015678406,
        0.9847761988639832
      ],
      "min": [
        0.008617740124464035,
        0.010762989521026611
      ],
      "type": "VEC2"
    },
    {
      "bufferView": 1,
      "byteOffset": 1835376,
      "componentType": 5126,
      "count": 24136,
      "max": [
        0.9925310015678406,
        0.9847761988639832
      ],
      "min": [
        0.008617740124464035,
        0.010762989521026611
      ],
      "type": "VEC2"
    },
    {
      "bufferView": 1,
      "byteOffset": 2028464,
      "componentType": 5126,
      "count": 24136,
      "max": [
        0.9925310015678406,
        0.9847761988639832
      ],
      "min": [
        0.008617740124464035,
        0.010762989521026611
      ],
      "type": "VEC2"
    },
    {
      "bufferView": 1,
      "byteOffset": 2221552,
      "componentType": 5126,
      "count": 24136,
      "max": [
        0.9925310015678406,
        0.9847761988639832
      ],
      "min": [
        0.008617740124464035,
        0.010762989521026611
      ],
      "type": "VEC2"
    },
    {
      "bufferView": 0,
      "byteOffset": 610368,
      "componentType": 5125,
      "count": 131574,
      "type": "SCALAR"
    }
  ],
  "asset": {
    "extras": {
      "author": "mikhailgororbets (https://sketchfab.com/mikhailgororbets)",
      "license": "SKETCHFAB Standard (https://sketchfab.com/licenses)",
      "source": "https://sketchfab.com/3d-models/flighthelmet-f7f13357977944a98458cc67ec8c52c1",
      "title": "FlightHelmet"
    },
    "generator": "Sketchfab-16.12.0",
    "version": "2.0"
  },
  "bufferViews": [
    {
      "buffer": 0,
      "byteLength": 1136664,
      "name": "floatBufferViews",
      "target": 34963
    },
    {
      "buffer": 0,
      "byteLength": 2414640,
      "byteOffset": 1136664,
      "byteStride": 8,
      "name": "floatBufferViews",
      "target": 34962
    },
    {
      "buffer": 0,
      "byteLength": 1448784,
      "byteOffset": 3551304,
      "byteStride": 12,
      "name": "floatBufferViews",
      "target": 34962
    },
    {
      "buffer": 0,
      "byteLength": 965856,
      "byteOffset": 5000088,
      "byteStride": 16,
      "name": "floatBufferViews",
      "target": 34962
    }
  ],
  "buffers": [
    {
      "byteLength": 5965944,
      "uri": "scene.bin"
    }
  ],
  "images": [
    {
      "uri": "textures/GlassPlasticMat_baseColor.jpeg"
    },
    {
      "uri": "textures/GlassPlasticMat_metallicRoughness.png"
    },
    {
      "uri": "textures/GlassPlasticMat_normal.jpeg"
    },
    {
      "uri": "textures/LeatherPartsMat_baseColor.jpeg"
    },
    {
      "uri": "textures/LeatherPartsMat_metallicRoughness.png"
    },
    {
      "uri": "textures/LeatherPartsMat_normal.jpeg"
    },
    {
      "uri": "textures/LensesMat_baseColor.png"
    },
    {
      "uri": "textures/LensesMat_metallicRoughness.png"
    },
    {
      "uri": "textures/LensesMat_normal.jpeg"
    },
    {
      "uri": "textures/MetalPartsMat_baseColor.jpeg"
    },
    {
      "uri": "textures/MetalPartsMat_metallicRoughness.png"
    },
    {
      "uri": "textures/MetalPartsMat_normal.jpeg"
    },
    {
      "uri": "textures/RubberWoodMat_baseColor.jpeg"
    },
    {
      "uri": "textures/RubberWoodMat_metallicRoughness.png"
    },
    {
      "uri": "textures/RubberWoodMat_normal.jpeg"
    }
  ],
  "materials": [
    {
      "name": "GlassPlasticMat",
      "normalTexture": {
        "index": 2
      },
      "occlusionTexture": {
        "index": 1
      },
      "pbrMetallicRoughness": {
        "baseColorTexture": {
          "index": 0
        },
        "metallicRoughnessTexture": {
          "index": 1
        }
      }
    },
    {
      "name": "LeatherPartsMat",
      "normalTexture": {
        "index": 5
      },
      "occlusionTexture": {
        "index": 4
      },
      "pbrMetallicRoughness": {
        "baseColorTexture": {
          "index": 3
        },
        "metallicRoughnessTexture": {
          "index": 4
        }
      }
    },
    {
      "alphaMode": "BLEND",
      "name": "LensesMat",
      "normalTexture": {
        "index": 8
      },
      "occlusionTexture": {
        "index": 7
      },
      "pbrMetallicRoughness": {
        "baseColorTexture": {
          "index": 6
        },
        "metallicRoughnessTexture": {
          "index": 7
        }
      }
    },
    {
      "name": "MetalPartsMat",
      "normalTexture": {
        "index": 11
      },
      "occlusionTexture": {
        "index": 10
      },
      "pbrMetallicRoughness": {
        "baseColorTexture": {
          "index": 9
        },
        "metallicRoughnessTexture": {
          "index": 10
        }
      }
    },
    {
      "doubleSided": true,
      "name": "RubberWoodMat",
      "normalTexture": {
        "index": 14
      },
      "occlusionTexture": {
        "index": 13
      },
      "pbrMetallicRoughness": {
        "baseColorTexture": {
          "index": 12
        },
        "metallicRoughnessTexture": {
          "index": 13
        }
      }
    }
  ],
  "meshes": [
    {
      "name": "Object_0",
      "primitives": [
        {
          "attributes": {
            "NORMAL": 1,
            "POSITION": 0,
            "TANGENT": 2,
            "TEXCOORD_0": 3,
            "TEXCOORD_1": 4,
            "TEXCOORD_2": 5,
            "TEXCOORD_3": 6,
            "TEXCOORD_4": 7
          },
          "indices": 8,
          "material": 0,
          "mode": 4
        }
      ]
    },
    {
      "name": "Object_1",
      "primitives": [
        {
          "attributes": {
            "NORMAL": 10,
            "POSITION": 9,
            "TANGENT": 11,
            "TEXCOORD_0": 12,
            "TEXCOORD_1": 13,
            "TEXCOORD_2": 14,
            "TEXCOORD_3": 15,
            "TEXCOORD_4": 16
          },
          "indices": 17,
          "material": 1,
          "mode": 4
        }
      ]
    },
    {
      "name": "Object_2",
      "primitives": [
        {
          "attributes": {
            "NORMAL": 19,
            "POSITION": 18,
            "TANGENT": 20,
            "TEXCOORD_0": 21,
            "TEXCOORD_1": 22,
            "TEXCOORD_2": 23,
            "TEXCOORD_3": 24,
            "TEXCOORD_4": 25
          },
          "indices": 26,
          "material": 2,
          "mode": 4
        }
      ]
    },
    {
      "name": "Object_3",
      "primitives": [
        {
          "attributes": {
            "NORMAL": 28,
            "POSITION": 27,
            "TANGENT": 29,
            "TEXCOORD_0": 30,
            "TEXCOORD_1": 31,
            "TEXCOORD_2": 32,
            "TEXCOORD_3": 33,
            "TEXCOORD_4": 34
          },
          "indices": 35,
          "material": 3,
          "mode": 4
        }
      ]
    },
    {
      "name": "Object_4",
      "primitives": [
        {
          "attributes": {
            "NORMAL": 37,
            "POSITION": 36,
            "TANGENT": 38,
            "TEXCOORD_0": 39,
            "TEXCOORD_1": 40,
            "TEXCOORD_2": 41,
            "TEXCOORD_3": 42,
            "TEXCOORD_4": 43
          },
          "indices": 44,
          "material": 4,
          "mode": 4
        }
      ]
    }
  ],
  "nodes": [
    {
      "children": [
        1
      ],
      "matrix": [
        1.0,
        0.0,
        0.0,
        0.0,
        0.0,
        2.220446049250313e-16,
        -1.0,
        0.0,
        0.0,
        1.0,
        2.220446049250313e-16,
        0.0,
        0.0,
        0.0,
        0.0,
        1.0
      ],
      "name": "Sketchfab_model"
    },
    {
      "children": [
        2
      ],
      "name": "root"
    },
    {
      "children": [
        3
      ],
      "matrix": [
        1.0,
        0.0,
        0.0,
        0.0,
        0.0,
        2.220446049250313e-16,
        1.0,
        0.0,
        0.0,
        -1.0,
        2.220446049250313e-16,
        0.0,
        0.0,
        0.0,
        0.0,
        1.0
      ],
      "name": "GLTF_SceneRootNode"
    },
    {
      "children": [
        4,
        6,
        8,
        10,
        12
      ],
      "matrix": [
        -1.0,
        0.0,
        0.0,
        0.0,
        0.0,
        1.0,
        0.0,
        0.0,
        0.0,
        0.0,
        -1.0,
        0.0,
        0.0,
        0.0,
        0.0,
        1.0
      ],
      "name": "FlightHelmet_5"
    },
    {
      "children": [
        5
      ],
      "name": "GlassPlastic_low_0"
    },
    {
      "mesh": 0,
      "name": "Object_5"
    },
    {
      "children": [
        7
      ],
      "matrix": [
        1.0,
        0.0,
        0.0,
        0.0,
        0.0,
        1.0,
        0.0,
        0.0,
        0.0,
        0.0,
        1.0,
        0.0,
        0.00043449996155686677,
        0.03259299695491791,
        0.011676996015012264,
        1.0
      ],
      "name": "LeatherParts_low_1"
    },
    {
      "mesh": 1,
      "name": "Object_7"
    },
    {
      "children": [
        9
      ],
      "name": "Lenses_low_2"
    },
    {
      "mesh": 2,
      "name": "Object_9"
    },
    {
      "children": [
        11
      ],
      "matrix": [
        1.0,
        0.0,
        0.0,
        0.0,
        0.0,
        1.0,
        0.0,
        0.0,
        0.0,
        0.0,
        1.0,
        0.0,
        0.03315449878573418,
        -0.1488644927740097,
        -0.0242879968136549,
        1.0
      ],
      "name": "MetalParts_low_3"
    },
    {
      "mesh": 3,
      "name": "Object_11"
    },
    {
      "children": [
        13
      ],
      "matrix": [
        1.0,
        0.0,
        0.0,
        0.0,
        0.0,
        1.0,
        0.0,
        0.0,
        0.0,
        0.0,
        1.0,
        0.0,
        -0.001908498932607472,
        -0.11198499798774719,
        -0.01331300102174282,
        1.0
      ],
      "name": "RubberWood_low_4"
    },
    {
      "mesh": 4,
      "name": "Object_13"
    }
  ],
  "samplers": [
    {
      "magFilter": 9729,
      "minFilter": 9987,
      "wrapS": 10497,
      "wrapT": 10497
    }
  ],
  "scene": 0,
  "scenes": [
    {
      "name": "Sketchfab_Scene",
      "nodes": [
        0
      ]
    }
  ],
  "textures": [
    {
      "sampler": 0,
      "source": 0
    },
    {
      "sampler": 0,
      "source": 1
    },
    {
      "sampler": 0,
      "source": 2
    },
    {
      "sampler": 0,
      "source": 3
    },
    {
      "sampler": 0,
      "source": 4
    },
    {
      "sampler": 0,
      "source": 5
    },
    {
      "sampler": 0,
      "source": 6
    },
    {
      "sampler": 0,
      "source": 7
    },
    {
      "sampler": 0,
      "source": 8
    },
    {
      "sampler": 0,
      "source": 9
    },
    {
      "sampler": 0,
      "source": 10
    },
    {
      "sampler": 0,
      "source": 11
    },
    {
      "sampler": 0,
      "source": 12
    },
    {
      "sampler": 0,
      "source": 13
    },
    {
      "sampler": 0,
      "source": 14
    }
  ]
}
